<?xml version="1.0" encoding="UTF-8" standalone="no"?>
<svg width="107px" height="103px" viewBox="0 0 107 103" version="1.1" xmlns="http://www.w3.org/2000/svg" xmlns:xlink="http://www.w3.org/1999/xlink" xmlns:sketch="http://www.bohemiancoding.com/sketch/ns">
    <!-- Generator: Sketch 3.3 (11970) - http://www.bohemiancoding.com/sketch -->
    <title>apollo11-large</title>
    <desc>Created with Sketch.</desc>
    <defs>
        <path id="path-1" d="M61.8922993,20.6914576 C68.193065,37.0780221 59.9516209,55.4448598 43.4855301,61.7149815 C27.0183196,67.9851033 8.56115775,59.7842989 2.25983209,43.3966199 C-4.04093365,27.0106125 4.19939066,8.64377491 20.6666012,2.37365314 C37.1332519,-3.89758303 55.5904137,4.30266421 61.8922993,20.6914576"></path>
    </defs>
    <g id="Page-1" stroke="none" stroke-width="1" fill="none" fill-rule="evenodd" sketch:type="MSPage">
        <g id="Artboard-1-Copy-27" sketch:type="MSArtboardGroup" transform="translate(-323.000000, -774.000000)">
            <g id="Line-+-Oval-7-+-hub_illu_grandbruit-Copy-3" sketch:type="MSLayerGroup" transform="translate(300.000000, 750.000000)">
                <g id="Imported-Layers">
                    <g id="apollo11-large" transform="translate(0.000000, 1.398148)">
                        <path d="M147.979808,74.1074238 C147.979808,114.727538 114.889169,147.657239 74.0705322,147.657239 C33.2518951,147.657239 0.161256601,114.727538 0.161256601,74.1074238 C0.161256601,33.4867522 33.2518951,0.557608309 74.0705322,0.557608309 C114.889169,0.557608309 147.979808,33.4867522 147.979808,74.1074238" id="Fill-9" sketch:type="MSShapeGroup"></path>
                        <path d="M124.297476,78.8990672 C121.873171,104.381303 100.310801,124.316317 74.0694123,124.316317 C46.2044956,124.316317 23.6151334,101.837376 23.6151334,74.1074238 C23.6151334,46.3769146 46.2044956,23.8979736 74.0694123,23.8979736 C100.352571,23.8979736 121.941802,43.8964999 124.308907,69.437415" id="Stroke-10" stroke="#E2DAC7" sketch:type="MSShapeGroup"></path>
                        <path d="M129.200693,74.1074238 C129.200693,76.677767 127.107156,78.7611212 124.524251,78.7611212 C121.940786,78.7611212 119.84725,76.677767 119.84725,74.1074238 C119.84725,71.5365234 121.940786,69.4531692 124.524251,69.4531692 C127.107156,69.4531692 129.200693,71.5365234 129.200693,74.1074238 L129.200693,74.1074238 Z" id="Stroke-12" stroke="#E2DAC7" sketch:type="MSShapeGroup"></path>
                        <g id="Group-15" transform="translate(41.993907, 42.063106)">
                            <mask id="mask-2" sketch:name="Clip 14" fill="white">
                                <use xlink:href="#path-1"></use>
                            </mask>
                            <g id="Clip-14"></g>
                            <path d="M15.5551029,62.8850923 L19.9756615,56.6773764 L26.677889,58.3729225 L31.7871476,57.197797 M2.39925186,11.2469926 L5.85115098,18.8995166 L4.81306161,23.8345978 L2.48491943,29.5001624 L-3.08571225,33.3163948 L-6.07959783,32.3234723 M5.79571903,8.08435055 L9.12555586,9.8785203 L13.8809458,12.587048 L18.3003846,14.5372325 L19.6156337,11.7612841 L22.1582248,7.45973432 M4.53982126,23.7822214 L7.443,27.8280185 L10.3691354,31.8593284 M10.3349804,31.8793875 L14.444784,27.6408007 L18.33174,23.6668819 L21.7752404,25.9536125 L22.9264333,32.5758819 L23.073132,35.3033542 L24.7159336,45.7669299 L31.3739276,46.7592952 L32.4131368,52.1468192 L31.7871476,57.197797 L32.4327339,63.9025314 M10.3691354,31.8593284 L12.708476,37.2618967 L15.1833169,42.5981587 L18.1620846,47.8998745 L19.4151828,51.7450812 L19.9756615,56.6773764 M8.87975152,45.5228782 L3.65682938,39.9163764 L-4.94464252,40.1325683 M8.83047867,45.6382177 L12.9929147,45.4392989 L15.4196026,43.0271993 M15.4352803,43.0650886 L24.7159336,45.7669299 M8.81536087,45.5875129 L10.5219932,50.7081402 L10.2045193,57.7795092 L12.5544983,61.6960369 M18.3003846,14.5372325 L19.5887576,19.8261328 L18.33174,23.6668819 M21.7752404,25.9536125 L26.8184286,23.0879557 L32.073826,20.2183985 M31.3739276,46.7592952 L32.4349736,41.832572 L31.8728152,36.0499963 L32.4960047,30.2841365 L32.073826,20.2183985 L31.5251056,13.8925572 L22.1582248,7.45973432 L22.7438998,1.18905535 M2.48491943,29.5001624 L4.20107041,35.0871624 L3.65682938,39.9163764 M31.5251056,13.8925572 L33.4394678,8.16012915 L33.5794475,0.196132841" id="Stroke-13" stroke="#E2DAC7" sketch:type="MSShapeGroup" mask="url(#mask-2)"></path>
                        </g>
                        <path d="M43.9217068,63.6622356 C49.7191056,47.0912393 67.9170251,38.3354681 84.5667691,44.104671 C101.217073,49.8749884 110.017316,67.9832873 104.219357,84.552612 C98.4225186,101.122494 80.2251591,109.879937 63.5748551,104.110734 C46.9234313,98.342088 38.124868,80.2310031 43.9217068,63.6622356 L43.9217068,63.6622356 Z" id="Stroke-16" stroke="#E2DAC7" sketch:type="MSShapeGroup"></path>
                    </g>
                </g>
            </g>
        </g>
    </g>
</svg>