<?xml version="1.0" encoding="UTF-8" standalone="no"?>
<svg width="77px" height="74px" viewBox="0 0 77 74" version="1.1" xmlns="http://www.w3.org/2000/svg" xmlns:xlink="http://www.w3.org/1999/xlink" xmlns:sketch="http://www.bohemiancoding.com/sketch/ns">
    <!-- Generator: Sketch 3.3 (11970) - http://www.bohemiancoding.com/sketch -->
    <title>A11</title>
    <desc>Created with Sketch.</desc>
    <defs>
        <path id="path-1" d="M44.2301679,14.7991882 C48.7328917,26.5193801 42.8432986,39.6559262 31.0761165,44.1405166 C19.3081341,48.625107 6.11807041,42.759631 1.61494651,31.0386421 C-2.88777725,19.3188487 3.00101557,6.18230258 14.768998,1.69771218 C26.5365802,-2.78767528 39.7266439,3.07740221 44.2301679,14.7991882"></path>
    </defs>
    <g id="Page-1" stroke="none" stroke-width="1" fill="none" fill-rule="evenodd" sketch:type="MSPage">
        <g id="Artboard-1-Copy-27" sketch:type="MSArtboardGroup" transform="translate(-434.000000, -559.000000)">
            <g id="Group" sketch:type="MSLayerGroup" transform="translate(133.000000, 530.000000)">
                <g id="Line-+-Oval-7-+-hub_illu_grandbruit" transform="translate(285.000000, 12.000000)">
                    <g id="Imported-Layers">
                        <g id="A11" transform="translate(0.000000, 1.000000)">
                            <path d="M105.750987,53.0039852 C105.750987,82.0567823 82.1033846,105.609151 52.9331131,105.609151 C23.7628416,105.609151 0.115238998,82.0567823 0.115238998,53.0039852 C0.115238998,23.9507897 23.7628416,0.398819188 52.9331131,0.398819188 C82.1033846,0.398819188 105.750987,23.9507897 105.750987,53.0039852" id="Fill-9" sketch:type="MSShapeGroup"></path>
                            <path d="M88.826854,56.4311209 C87.0943699,74.6568261 71.6852281,88.9149815 52.9323128,88.9149815 C33.019174,88.9149815 16.876111,72.8373284 16.876111,53.0039852 C16.876111,33.1702435 33.019174,17.0925904 52.9323128,17.0925904 C71.7150776,17.0925904 87.1434156,31.3961721 88.8350229,49.6638465" id="Stroke-10" stroke="#E2DAC7" stroke-width="0.75" sketch:type="MSShapeGroup"></path>
                            <path d="M92.3308456,53.0039852 C92.3308456,54.8423764 90.8347393,56.3324576 88.9889147,56.3324576 C87.1426899,56.3324576 85.6465836,54.8423764 85.6465836,53.0039852 C85.6465836,51.1651956 87.1426899,49.6751144 88.9889147,49.6751144 C90.8347393,49.6751144 92.3308456,51.1651956 92.3308456,53.0039852 L92.3308456,53.0039852 Z" id="Stroke-12" stroke="#E2DAC7" stroke-width="0.75" sketch:type="MSShapeGroup"></path>
                            <g id="Group-15" transform="translate(30.010156, 30.084871)">
                                <mask id="mask-2" sketch:name="Clip 14" fill="white">
                                    <use xlink:href="#path-1"></use>
                                </mask>
                                <g id="Clip-14"></g>
                                <path d="M11.1161618,44.977417 L14.2752309,40.5374613 L19.0648517,41.7501697 L22.7160873,40.9096827 M1.71458023,8.04420664 L4.18141503,13.5175351 L3.43956398,17.047262 L1.77580095,21.0994539 L-2.20514624,23.8289446 L-4.34467028,23.1187749 M4.14180162,5.7821845 L6.52140691,7.06543173 L9.91975694,9.00265683 L13.0780257,10.3974908 L14.0179438,8.41204428 L15.8349587,5.33543911 M3.2442979,17.0098007 L5.319,19.9034834 L7.41010765,22.7868044 M7.38569939,22.8011513 L10.3226933,19.7695793 L13.1004333,16.9273063 L15.5612661,18.5628487 L16.3839445,23.2993063 L16.48878,25.2500812 L17.6627773,32.7339631 L22.4207874,33.4437343 L23.1634387,37.2970627 L22.7160873,40.9096827 L23.1774435,45.7051218 M7.41010765,22.7868044 L9.08187339,26.650893 L10.8504719,30.4675572 L12.9791923,34.2595129 L13.8746953,37.0097269 L14.2752309,40.5374613 M6.34574746,32.5594096 L2.61328436,28.5494613 L-3.5335958,28.7040886 M6.31053555,32.6419041 L9.28514218,32.499631 L11.019329,30.7744207 M11.0305328,30.8015203 L17.6627773,32.7339631 M6.29973189,32.6056384 L7.51934462,36.2680738 L7.29246784,41.3257417 L8.97183615,44.1269668 M13.0780257,10.3974908 L13.9987373,14.1802804 L13.1004333,16.9273063 M15.5612661,18.5628487 L19.1652857,16.5132399 L22.9209567,14.4608413 M22.4207874,33.4437343 L23.179044,29.9199852 L22.7773081,25.7841033 L23.2226588,21.6601771 L22.9209567,14.4608413 L22.528824,9.93639852 L15.8349587,5.33543911 L16.2535003,0.850450185 M1.77580095,21.0994539 L3.00221598,25.0954539 L2.61328436,28.5494613 M22.528824,9.93639852 L23.8968869,5.83638376 L23.9969208,0.140280443" id="Stroke-13" stroke="#E2DAC7" stroke-width="0.75" sketch:type="MSShapeGroup" mask="url(#mask-2)"></path>
                            </g>
                            <path d="M31.3878219,45.5332546 C35.530824,33.6811513 48.5356249,27.4187454 60.4340515,31.5450627 C72.3328781,35.6721771 78.6218064,48.6238081 74.4784042,60.4747159 C70.3358023,72.3260221 57.3314015,78.5896236 45.4325748,74.4633063 C33.5329479,70.3373875 27.24522,57.3837638 31.3878219,45.5332546 L31.3878219,45.5332546 Z" id="Stroke-16" stroke="#E2DAC7" stroke-width="0.75" sketch:type="MSShapeGroup"></path>
                        </g>
                    </g>
                </g>
            </g>
        </g>
    </g>
</svg>