<?xml version="1.0" encoding="UTF-8" standalone="no"?>
<svg width="106px" height="93px" viewBox="0 0 106 93" version="1.1" xmlns="http://www.w3.org/2000/svg" xmlns:xlink="http://www.w3.org/1999/xlink" xmlns:sketch="http://www.bohemiancoding.com/sketch/ns">
    <!-- Generator: Sketch 3.3 (11970) - http://www.bohemiancoding.com/sketch -->
    <title>detroit-large</title>
    <desc>Created with Sketch.</desc>
    <defs></defs>
    <g id="Page-1" stroke="none" stroke-width="1" fill="none" fill-rule="evenodd" sketch:type="MSPage">
        <g id="Artboard-1-Copy-27" sketch:type="MSArtboardGroup" transform="translate(-547.000000, -778.000000)">
            <g id="Line-+-Oval-7-+-hub_illu_grandbruit-Copy-3" sketch:type="MSLayerGroup" transform="translate(300.000000, 750.000000)">
                <g id="Imported-Layers" sketch:type="MSShapeGroup">
                    <g id="detroit-large" transform="translate(225.291032, 0.000000)">
                        <path d="M149.277257,75.505572 C149.277257,116.900188 115.999046,150.456734 74.9480423,150.456734 C33.8970389,150.456734 0.618827702,116.900188 0.618827702,75.505572 C0.618827702,34.1109557 33.8970389,0.553852399 74.9480423,0.553852399 C115.999046,0.553852399 149.277257,34.1109557 149.277257,75.505572" id="Fill-5"></path>
                        <path d="M45.9560092,99.0515424 L30.9188311,99.0515424 L30.9188311,54.8118856 L45.9560092,54.8118856 M60.9926273,99.0515424 L45.9560092,99.0515424 L45.9560092,45.5390369 L60.9926273,45.5390369 M60.9926273,85.0475461 L60.9926273,29.9537196 L76.0298054,29.9537196 L76.0298054,99.0515424 L60.9926273,99.0515424 L60.9926273,85.0475461 M76.0298054,45.5390369 L91.0669834,45.5390369 L91.0669834,99.0515424 L76.0298054,99.0515424 M91.0669834,75.126679 L106.103602,75.126679 L106.103602,99.0515424 L91.0669834,99.0515424 M106.103602,82.9719926 L121.14134,82.9719926 L121.14134,99.0515424 L106.103602,99.0515424 M38.4374201,107.092432 L113.622751,107.092432 M113.622751,119.527365 L38.4374201,119.527365" id="Stroke-6" stroke="#E2DAC7"></path>
                        <path d="M113.345178,111.5 L38.7612521,111.5" id="Stroke-7" stroke="#E2DAC7" stroke-dasharray="5,5"></path>
                        <path d="M35.8585877,58.9286704 L35.8585877,64.5099454 M35.8585877,69.5128095 L35.8585877,75.0940846 M35.8585877,80.0958342 L35.8585877,85.6771092 M83.5556552,68.9511157 L83.5556552,74.5323907 M83.5556552,79.5346976 L83.5556552,85.1154154 M83.5556552,90.1188368 L83.5556552,95.6995545 M110.885436,90.1188368 L110.885436,95.6995545 M103.04605,50.3806713 L103.04605,55.9619464 M107.562097,54.8190555 L107.562097,60.4003305 M113.632022,44.4327351 L113.632022,50.0140101 M95.8360542,32.0760285 L95.8360542,37.6567463 M48.3568097,34.2158144 L48.3568097,39.7965322 M41.0773793,28.144729 L41.0773793,33.7260041 M23.1587816,66.1610355 L23.1587816,71.7417532 M126.750675,75.7315624 L126.750675,81.3128375 M50.7215046,58.9286704 L50.7215046,64.5099454 M50.7215046,69.5128095 L50.7215046,75.0940846 M50.7215046,80.0958342 L50.7215046,85.6771092 M56.237073,58.9286704 L56.237073,64.5099454 M56.237073,69.5128095 L56.237073,75.0940846 M56.237073,80.0958342 L56.237073,85.6771092 M65.7596878,39.7965322 L65.7596878,45.3778072 M65.7596878,50.3806713 L65.7596878,55.9619464 M65.7596878,60.963696 L65.7596878,66.544971 M71.2752562,39.7965322 L71.2752562,45.3778072 M71.2752562,50.3806713 L71.2752562,55.9619464 M71.2752562,60.963696 L71.2752562,66.544971 M95.8360542,79.5346976 L95.8360542,85.1154154 M95.8360542,90.1188368 L95.8360542,95.6995545 M101.351063,79.5346976 L101.351063,85.1154154 M101.351063,90.1188368 L101.351063,95.6995545" id="Stroke-8" stroke="#E2DAC7"></path>
                    </g>
                </g>
            </g>
        </g>
    </g>
</svg>