<?xml version="1.0" encoding="UTF-8" standalone="no"?>
<svg width="75px" height="66px" viewBox="0 0 75 66" version="1.1" xmlns="http://www.w3.org/2000/svg" xmlns:xlink="http://www.w3.org/1999/xlink" xmlns:sketch="http://www.bohemiancoding.com/sketch/ns">
    <!-- Generator: Sketch 3.3 (11970) - http://www.bohemiancoding.com/sketch -->
    <title>Détroit</title>
    <desc>Created with Sketch.</desc>
    <defs></defs>
    <g id="Page-1" stroke="none" stroke-width="1" fill="none" fill-rule="evenodd" sketch:type="MSPage">
        <g id="Artboard-1-Copy-27" sketch:type="MSArtboardGroup" transform="translate(-595.000000, -562.000000)">
            <g id="Group" sketch:type="MSLayerGroup" transform="translate(133.000000, 530.000000)">
                <g id="Line-+-Oval-7-+-hub_illu_grandbruit" transform="translate(285.000000, 12.000000)" sketch:type="MSShapeGroup">
                    <g id="Imported-Layers">
                        <g id="Détroit" transform="translate(161.000000, 0.000000)">
                            <path d="M106.678185,54.0039852 C106.678185,83.6107306 82.8965369,107.611439 53.5602092,107.611439 C24.2238815,107.611439 0.442233582,83.6107306 0.442233582,54.0039852 C0.442233582,24.3972399 24.2238815,0.396132841 53.5602092,0.396132841 C82.8965369,0.396132841 106.678185,24.3972399 106.678185,54.0039852" id="Fill-5"></path>
                            <path d="M32.8415978,70.8448118 L22.0955613,70.8448118 L22.0955613,39.203203 L32.8415978,39.203203 M43.5872343,70.8448118 L32.8415978,70.8448118 L32.8415978,32.5709668 L43.5872343,32.5709668 M43.5872343,60.8287085 L43.5872343,21.4238524 L54.3332708,21.4238524 L54.3332708,70.8448118 L43.5872343,70.8448118 L43.5872343,60.8287085 M54.3332708,32.5709668 L65.0793074,32.5709668 L65.0793074,70.8448118 L54.3332708,70.8448118 M65.0793074,53.7329889 L75.8249438,53.7329889 L75.8249438,70.8448118 L65.0793074,70.8448118 M75.8249438,59.3442066 L86.5713805,59.3442066 L86.5713805,70.8448118 L75.8249438,70.8448118 M27.4685796,76.5959114 L81.1983622,76.5959114 M81.1983622,85.4897712 L27.4685796,85.4897712" id="Stroke-6" stroke="#E2DAC7" stroke-width="0.75"></path>
                            <path d="M81,81 L27.7,81" id="Stroke-7" stroke="#E2DAC7" stroke-width="0.75" stroke-dasharray="5,5"></path>
                            <path d="M25.6256655,42.1476583 L25.6256655,46.1395636 M25.6256655,49.7177711 L25.6256655,53.7096764 M25.6256655,57.2870867 L25.6256655,61.278992 M59.7114779,49.3160298 L59.7114779,53.3079351 M59.7114779,56.885744 L59.7114779,60.8772508 M59.7114779,64.4558568 L59.7114779,68.4473635 M79.2421922,64.4558568 L79.2421922,68.4473635 M73.639922,36.0338576 L73.639922,40.025763 M76.8672298,39.2083311 L76.8672298,43.2002364 M81.2049876,31.7797046 L81.2049876,35.7716099 M68.4874341,22.9417952 L68.4874341,26.933302 M34.5572848,24.4722381 L34.5572848,28.4637449 M29.3551768,20.1300049 L29.3551768,24.1219102 M16.5499878,47.3204757 L16.5499878,51.3119824 M90.5799866,54.1656208 L90.5799866,58.1575261 M36.2471696,42.1476583 L36.2471696,46.1395636 M36.2471696,49.7177711 L36.2471696,53.7096764 M36.2471696,57.2870867 L36.2471696,61.278992 M40.1887668,42.1476583 L40.1887668,46.1395636 M40.1887668,49.7177711 L40.1887668,53.7096764 M40.1887668,57.2870867 L40.1887668,61.278992 M46.9939244,28.4637449 L46.9939244,32.4556502 M46.9939244,36.0338576 L46.9939244,40.025763 M46.9939244,43.6031733 L46.9939244,47.5950786 M50.9355217,28.4637449 L50.9355217,32.4556502 M50.9355217,36.0338576 L50.9355217,40.025763 M50.9355217,43.6031733 L50.9355217,47.5950786 M68.4874341,56.885744 L68.4874341,60.8772508 M68.4874341,64.4558568 L68.4874341,68.4473635 M72.4286312,56.885744 L72.4286312,60.8772508 M72.4286312,64.4558568 L72.4286312,68.4473635" id="Stroke-8" stroke="#E2DAC7" stroke-width="0.75"></path>
                        </g>
                    </g>
                </g>
            </g>
        </g>
    </g>
</svg>