<?xml version="1.0" encoding="UTF-8" standalone="no"?>
<svg width="64px" height="66px" viewBox="0 0 64 66" version="1.1" xmlns="http://www.w3.org/2000/svg" xmlns:xlink="http://www.w3.org/1999/xlink" xmlns:sketch="http://www.bohemiancoding.com/sketch/ns">
    <!-- Generator: Sketch 3.3 (11970) - http://www.bohemiancoding.com/sketch -->
    <title>Doudou</title>
    <desc>Created with Sketch.</desc>
    <defs></defs>
    <g id="Page-1" stroke="none" stroke-width="1" fill="none" fill-rule="evenodd" sketch:type="MSPage">
        <g id="Artboard-1-Copy-27" sketch:type="MSArtboardGroup" transform="translate(-765.000000, -563.000000)">
            <g id="Group" sketch:type="MSLayerGroup" transform="translate(133.000000, 530.000000)">
                <g id="Line-+-Oval-7-+-hub_illu_grandbruit" transform="translate(285.000000, 12.000000)" sketch:type="MSShapeGroup">
                    <g id="Imported-Layers">
                        <g id="Doudou" transform="translate(323.000000, 0.000000)">
                            <path d="M106.306081,54.0039852 C106.306081,83.6107306 82.5240332,107.611439 53.1881056,107.611439 C23.8517779,107.611439 0.0701299932,83.6107306 0.0701299932,54.0039852 C0.0701299932,24.3972399 23.8517779,0.396132841 53.1881056,0.396132841 C82.5240332,0.396132841 106.306081,24.3972399 106.306081,54.0039852" id="Fill-3"></path>
                            <path d="M40.9107508,31.6579483 L79.8423257,31.6579483 L79.8423257,43.0569299 L40.9107508,43.0569299 L40.9107508,31.6579483 Z M52.2757969,57.5432768 L86.9699377,57.5432768 L86.9699377,50.7520295 L52.2757969,50.7520295 L52.2757969,57.5432768 Z M52.0345152,57.5432768 L40.9107508,57.5432768 L40.9107508,43.0569299 L47.0024123,43.0569299 L52.0345152,50.7520295 L52.0345152,57.5432768 L52.0345152,57.5432768 Z M36.1311334,72.9027897 L64.7232092,72.9027897 L64.7232092,79.6940369 L36.1311334,79.6940369 L36.1311334,72.9027897 Z M25.0081693,45.6397638 L31.8268768,45.6397638 L31.8268768,65.3105092 L25.0081693,65.3105092 L25.0081693,45.6397638 Z M75.8465735,72.0292251 L86.9699377,72.0292251 L86.9699377,57.5432768 L80.8786764,57.5432768 L75.8465735,65.2379779 L75.8465735,72.0292251 L75.8465735,72.0292251 Z M25.0077691,65.20769 L31.8264766,65.20769 L36.1311334,72.9027897 L36.1311334,79.6940369 L30.039872,79.6940369 L25.0077691,71.9989373 L25.0077691,65.20769 L25.0077691,65.20769 Z M75.8465735,65.2084871 L64.7232092,65.2084871 L64.7232092,79.6940369 L70.8144705,79.6940369 L75.8465735,71.9989373 L75.8465735,65.2084871 L75.8465735,65.2084871 Z M51.3058687,37.3576384 C51.3058687,38.0363247 50.7528815,38.5882804 50.0702505,38.5882804 C49.3876195,38.5882804 48.8342322,38.0363247 48.8342322,37.3576384 C48.8342322,36.6773579 49.3876195,36.1254022 50.0702505,36.1254022 C50.7528815,36.1254022 51.3058687,36.6773579 51.3058687,37.3576384 L51.3058687,37.3576384 Z M77.5927644,34.3587454 C77.5927644,34.8266125 77.2110352,35.207203 76.7400758,35.207203 C76.2695166,35.207203 75.8881875,34.8266125 75.8881875,34.3587454 C75.8881875,33.8892841 76.2695166,33.5094908 76.7400758,33.5094908 C77.2110352,33.5094908 77.5927644,33.8892841 77.5927644,34.3587454 L77.5927644,34.3587454 Z M79.8427258,37.3576384 L51.3058687,37.3576384 L79.8427258,37.3576384 Z M25.0081693,45.6397638 L25.0081693,21.8128118 L25.0081693,45.6397638 Z M26.7127461,45.6397638 L26.7127461,21.8128118 L26.7127461,45.6397638 Z M28.417323,45.6397638 L28.417323,21.8128118 L28.417323,45.6397638 Z M30.1222999,45.6397638 L30.1222999,21.8128118 L30.1222999,45.6397638 Z M31.8268768,45.6397638 L31.8268768,21.8128118 L31.8268768,45.6397638 Z M36.1311334,79.6940369 L32.9392532,86.1947601 L36.1311334,79.6940369 Z M64.7232092,79.6940369 L61.5309289,86.1947601 L64.7232092,79.6940369 Z M64.7228091,79.6940369 L67.9146892,86.1947601 L64.7228091,79.6940369 Z M36.1311334,79.6940369 L39.3230135,86.1947601 L36.1311334,79.6940369 Z" id="Stroke-4" stroke="#E2DAC7" stroke-width="0.75"></path>
                        </g>
                    </g>
                </g>
            </g>
        </g>
    </g>
</svg>