<?xml version="1.0" encoding="UTF-8" standalone="no"?>
<svg width="89px" height="91px" viewBox="0 0 89 91" version="1.1" xmlns="http://www.w3.org/2000/svg" xmlns:xlink="http://www.w3.org/1999/xlink" xmlns:sketch="http://www.bohemiancoding.com/sketch/ns">
    <!-- Generator: Sketch 3.3 (11970) - http://www.bohemiancoding.com/sketch -->
    <title>doudou-large</title>
    <desc>Created with Sketch.</desc>
    <defs></defs>
    <g id="Page-1" stroke="none" stroke-width="1" fill="none" fill-rule="evenodd" sketch:type="MSPage">
        <g id="Artboard-1-Copy-27" sketch:type="MSArtboardGroup" transform="translate(-786.000000, -780.000000)">
            <g id="Line-+-Oval-7-+-hub_illu_grandbruit-Copy-3" sketch:type="MSLayerGroup" transform="translate(300.000000, 750.000000)">
                <g id="Imported-Layers" sketch:type="MSShapeGroup">
                    <g id="doudou-large" transform="translate(451.981387, 0.000000)">
                        <path d="M148.756564,75.505572 C148.756564,116.900188 115.477793,150.456734 74.4273491,150.456734 C33.3763458,150.456734 0.0981345252,116.900188 0.0981345252,75.505572 C0.0981345252,34.1109557 33.3763458,0.553852399 74.4273491,0.553852399 C115.477793,0.553852399 148.756564,34.1109557 148.756564,75.505572" id="Fill-3"></path>
                        <path d="M57.247362,44.2625018 L111.725217,44.2625018 L111.725217,60.1999668 L57.247362,60.1999668 L57.247362,44.2625018 Z M73.1507344,80.4540258 L121.69905,80.4540258 L121.69905,70.9588561 L73.1507344,70.9588561 L73.1507344,80.4540258 Z M72.8131034,80.4540258 L57.247362,80.4540258 L57.247362,60.1999668 L65.7715651,60.1999668 L72.8131034,70.9588561 L72.8131034,80.4540258 L72.8131034,80.4540258 Z M50.5591325,101.9289 L90.568687,101.9289 L90.568687,111.42407 L50.5591325,111.42407 L50.5591325,101.9289 Z M34.994511,63.8111513 L44.5360865,63.8111513 L44.5360865,91.3137675 L34.994511,91.3137675 L34.994511,63.8111513 Z M106.133868,100.707528 L121.69905,100.707528 L121.69905,80.4540258 L113.175407,80.4540258 L106.133868,91.2123579 L106.133868,100.707528 L106.133868,100.707528 Z M34.993951,91.1700111 L44.5355265,91.1700111 L50.5591325,101.9289 L50.5591325,111.42407 L42.0354893,111.42407 L34.993951,100.665181 L34.993951,91.1700111 L34.993951,91.1700111 Z M106.133868,91.1711255 L90.568687,91.1711255 L90.568687,111.42407 L99.0923302,111.42407 L106.133868,100.665181 L106.133868,91.1711255 L106.133868,91.1711255 Z M71.7934913,52.2315129 C71.7934913,53.180417 71.0196836,53.9521328 70.0644622,53.9521328 C69.1092408,53.9521328 68.3348732,53.180417 68.3348732,52.2315129 C68.3348732,51.2803801 69.1092408,50.5086642 70.0644622,50.5086642 C71.0196836,50.5086642 71.7934913,51.2803801 71.7934913,52.2315129 L71.7934913,52.2315129 Z M108.577354,48.0386162 C108.577354,48.6927638 108.043191,49.2248856 107.384167,49.2248856 C106.725703,49.2248856 106.1921,48.6927638 106.1921,48.0386162 C106.1921,47.3822399 106.725703,46.8512325 107.384167,46.8512325 C108.043191,46.8512325 108.577354,47.3822399 108.577354,48.0386162 L108.577354,48.0386162 Z M111.725777,52.2315129 L71.7934913,52.2315129 L111.725777,52.2315129 Z M34.994511,63.8111513 L34.994511,30.4975424 L34.994511,63.8111513 Z M37.3797649,63.8111513 L37.3797649,30.4975424 L37.3797649,63.8111513 Z M39.7650187,63.8111513 L39.7650187,30.4975424 L39.7650187,63.8111513 Z M42.1508326,63.8111513 L42.1508326,30.4975424 L42.1508326,63.8111513 Z M44.5360865,63.8111513 L44.5360865,30.4975424 L44.5360865,63.8111513 Z M50.5591325,111.42407 L46.0926606,120.513044 L50.5591325,111.42407 Z M90.568687,111.42407 L86.1016552,120.513044 L90.568687,111.42407 Z M90.5681271,111.42407 L95.034599,120.513044 L90.5681271,111.42407 Z M50.5591325,111.42407 L55.0256044,120.513044 L50.5591325,111.42407 Z" id="Stroke-4" stroke="#E2DAC7"></path>
                    </g>
                </g>
            </g>
        </g>
    </g>
</svg>