<?xml version="1.0" encoding="UTF-8" standalone="no"?>
<svg width="127px" height="110px" viewBox="0 0 127 110" version="1.1" xmlns="http://www.w3.org/2000/svg" xmlns:xlink="http://www.w3.org/1999/xlink" xmlns:sketch="http://www.bohemiancoding.com/sketch/ns">
    <!-- Generator: Sketch 3.3 (11970) - http://www.bohemiancoding.com/sketch -->
    <title>grandbruit-large</title>
    <desc>Created with Sketch.</desc>
    <defs></defs>
    <g id="Page-1" stroke="none" stroke-width="1" fill="none" fill-rule="evenodd" sketch:type="MSPage">
        <g id="Artboard-1-Copy-27" sketch:type="MSArtboardGroup" transform="translate(-989.000000, -772.000000)">
            <g id="Line-+-Oval-7-+-hub_illu_grandbruit-Copy-3" sketch:type="MSLayerGroup" transform="translate(300.000000, 750.000000)">
                <g id="Imported-Layers" sketch:type="MSShapeGroup">
                    <g id="grandbruit-large" transform="translate(677.272420, 0.000000)">
                        <path d="M149.634634,75.505572 C149.634634,116.900188 116.356423,150.456734 75.3054192,150.456734 C34.2549758,150.456734 0.976204611,116.900188 0.976204611,75.505572 C0.976204611,34.1109557 34.2549758,0.553852399 75.3054192,0.553852399 C116.356423,0.553852399 149.634634,34.1109557 149.634634,75.505572" id="Fill-1"></path>
                        <path d="M13.4707916,79.0838819 L15.9506718,69.579797 L13.1471586,62.092203 L19.0123075,48.7306531 L26.2100631,45.8861697 L32.7252777,33.8864059 L41.6251863,29.8896421 L40.5518221,39.7570185 L47.2008573,59.5374613 L47.2333326,75.671059 L25.8265188,97.1977528 L16.4607578,90.7370701 L13.4707916,79.0838819 L13.4707916,79.0838819 Z M45.7137131,110.182081 L51.8862574,121.829697 L65.8590299,127.125284 L61.1411545,130.700251 L48.0026609,127.421712 L32.4302005,118.771808 L31.0393624,111.863697 L45.7137131,110.182081 L45.7137131,110.182081 Z M74.8893996,79.5307528 C72.4414348,84.733845 66.2190577,86.9782288 60.9894165,84.5427269 C55.762015,82.1077823 53.5072222,75.9145535 55.9529473,70.7114613 C58.4025919,65.508369 64.6244091,63.2645424 69.8534903,65.7000443 C75.0814517,68.1355461 77.3373644,74.3282177 74.8893996,79.5307528 L74.8893996,79.5307528 Z M75.0075425,22.5391181 L56.9524023,38.4771402 C56.9524023,38.4771402 49.7815228,56.9002546 75.1027286,52.8377417 C100.424494,48.773 71.3428742,83.2583911 92.3566251,83.7197491 C113.369256,84.181107 79.4325804,99.6126384 98.621556,105.019664 C117.807732,110.426133 63.6999832,119.951391 63.6999832,119.951391 L95.8426792,121.409015 L117.807732,110.426133 L133.514573,94.2139705 L137.46368,69.3663911 L128.539135,43.6222841 L118.456678,30.9360554 L105.509117,23.3498376 L75.0075425,22.5391181 L75.0075425,22.5391181 Z" id="Stroke-2" stroke="#E2DAC7"></path>
                    </g>
                </g>
            </g>
        </g>
    </g>
</svg>