<?xml version="1.0" encoding="UTF-8" standalone="no"?>
<svg width="90px" height="79px" viewBox="0 0 90 79" version="1.1" xmlns="http://www.w3.org/2000/svg" xmlns:xlink="http://www.w3.org/1999/xlink" xmlns:sketch="http://www.bohemiancoding.com/sketch/ns">
    <!-- Generator: Sketch 3.3 (11970) - http://www.bohemiancoding.com/sketch -->
    <title>Grand Bruit</title>
    <desc>Created with Sketch.</desc>
    <defs></defs>
    <g id="Page-1" stroke="none" stroke-width="1" fill="none" fill-rule="evenodd" sketch:type="MSPage">
        <g id="Artboard-1-Copy-27" sketch:type="MSArtboardGroup" transform="translate(-911.000000, -557.000000)">
            <g id="Group" sketch:type="MSLayerGroup" transform="translate(133.000000, 530.000000)">
                <g id="Line-+-Oval-7-+-hub_illu_grandbruit" transform="translate(285.000000, 12.000000)" sketch:type="MSShapeGroup">
                    <g id="Imported-Layers">
                        <g id="Grand-Bruit" transform="translate(484.000000, 0.000000)">
                            <path d="M106.933578,54.0039852 C106.933578,83.6107306 83.1519296,107.611439 53.8156019,107.611439 C24.4796743,107.611439 0.697626269,83.6107306 0.697626269,54.0039852 C0.697626269,24.3972399 24.4796743,0.396132841 53.8156019,0.396132841 C83.1519296,0.396132841 106.933578,24.3972399 106.933578,54.0039852" id="Fill-1"></path>
                            <path d="M9.62664794,56.5633063 L11.3988477,49.7656827 L9.39536967,44.4103173 L13.5867881,34.8537122 L18.7305288,32.8192472 L23.3865044,24.2366347 L29.7466567,21.3780221 L28.9795972,28.4354834 L33.7312051,42.5830849 L33.754413,54.1223469 L18.456436,69.5189225 L11.763371,64.8980369 L9.62664794,56.5633063 L9.62664794,56.5633063 Z M32.6684455,78.8057269 L37.0795383,87.1364723 L47.0649174,90.9240443 L43.6933764,93.4809742 L34.3041991,91.136059 L23.175633,84.9493727 L22.1816967,80.0084723 L32.6684455,78.8057269 L32.6684455,78.8057269 Z M53.5183013,56.8829225 C51.7689093,60.6043395 47.3222045,62.2095941 43.5849397,60.4676458 C39.8492756,58.7260959 38.2379303,54.2965018 39.9857217,50.5750849 C41.7363142,46.8536679 46.1826188,45.2488118 49.9194834,46.9907601 C53.6555477,48.7327085 55.2676933,53.1619041 53.5183013,56.8829225 L53.5183013,56.8829225 Z M53.6027299,16.1206937 L40.6999634,27.5200738 C40.6999634,27.5200738 35.5754292,40.6968708 53.6707529,37.7912325 C71.7664766,34.884 50.9838436,59.549048 66.0009255,59.8790258 C81.0172072,60.2090037 56.765,71.2461255 70.4780406,75.1134022 C84.1890806,78.9802804 45.5219953,85.793048 45.5219953,85.793048 L68.4921686,86.8355867 L84.1890806,78.9802804 L95.4136791,67.3848266 L98.2358341,49.613048 L91.8580758,31.2000443 L84.6528375,22.1264502 L75.4001063,16.7005461 L53.6027299,16.1206937 L53.6027299,16.1206937 Z" id="Stroke-2" stroke="#E2DAC7" stroke-width="0.75"></path>
                        </g>
                    </g>
                </g>
            </g>
        </g>
    </g>
</svg>